<?xml version="1.0" encoding="iso-8859-1"?>
<!-- Generator: Adobe Illustrator 19.0.0, SVG Export Plug-In . SVG Version: 6.00 Build 0)  -->
<svg version="1.1" id="Capa_1" xmlns="http://www.w3.org/2000/svg" xmlns:xlink="http://www.w3.org/1999/xlink" x="0px" y="0px"
	 viewBox="0 0 511.999 511.999" style="enable-background:new 0 0 511.999 511.999;" xml:space="preserve">
<path style="fill:#8CA82F;" d="M378.843,9.005c-3.626,0-7.212,0.144-10.756,0.433L249.812,491.9
	c-1.679,7.431,6.975,12.818,12.885,8.012c115.056-93.564,249.302-229.508,249.302-357.749C512,68.624,452.38,9.005,378.843,9.005z"
	/>
<path style="fill:#A5C244;" d="M368.087,9.438c57.487,5.471,102.704,62.813,102.704,132.724
	c0,132.682-110.482,264.278-209.747,358.63c-2.896,2.752-7.384,2.947-10.507,0.457C133.713,408.168,3.617,278.687,0.051,147.659
	C-1.993,72.568,57.378,9.358,132.496,9.006c55.575-0.26,103.294,33.534,123.491,81.717C274.79,45.867,317.441,13.487,368.087,9.438z
	"/>
<g>
</g>
<g>
</g>
<g>
</g>
<g>
</g>
<g>
</g>
<g>
</g>
<g>
</g>
<g>
</g>
<g>
</g>
<g>
</g>
<g>
</g>
<g>
</g>
<g>
</g>
<g>
</g>
<g>
</g>
</svg>
